<svg xmlns="http://www.w3.org/2000/svg" xmlns:xlink="http://www.w3.org/1999/xlink" width="1151" zoomAndPan="magnify" viewBox="0 0 863.25 959.999988" height="1280" preserveAspectRatio="xMidYMid meet" version="1.0"><path fill="rgb(97.648621%, 85.488892%, 10.5896%)" d="M 336.449219 160.628906 C 336.449219 160.925781 341.171875 165.871094 347.015625 171.644531 C 371.816406 196.296875 382.457031 212.855469 388.003906 235.488281 C 389.503906 241.632812 391 246.128906 391.449219 245.976562 C 392.5 245.605469 394.523438 239.460938 396.097656 231.964844 C 397.070312 226.945312 397.296875 223.421875 396.921875 215.480469 C 396.398438 204.164062 395.273438 198.917969 391.824219 192.023438 C 387.554688 183.558594 372.941406 170.667969 362.300781 165.949219 C 354.734375 162.574219 336.449219 158.828125 336.449219 160.628906 Z M 336.449219 160.628906 " fill-opacity="1" fill-rule="nonzero"/><path fill="rgb(97.648621%, 85.488892%, 10.5896%)" d="M 511.644531 162.277344 C 507.222656 163.476562 502.128906 165.125 500.253906 165.949219 C 493.886719 168.71875 485.941406 174.492188 479.5 180.933594 C 469.230469 191.199219 466.308594 198.394531 465.5625 215.480469 C 465.1875 223.421875 465.410156 226.945312 466.386719 231.964844 C 468.707031 243.355469 471.40625 249.050781 472.378906 244.554688 C 476.277344 226.644531 478.597656 220.199219 484.894531 209.035156 C 490.964844 198.394531 498.457031 189.101562 512.695312 174.566406 C 520.039062 167.148438 526.03125 160.777344 526.03125 160.550781 C 526.03125 159.429688 519.289062 160.328125 511.644531 162.277344 Z M 511.644531 162.277344 " fill-opacity="1" fill-rule="nonzero"/><path fill="rgb(97.648621%, 85.488892%, 10.5896%)" d="M 430.492188 183.933594 C 430.265625 184.457031 429.21875 189.328125 428.167969 194.796875 C 423.746094 219.226562 412.808594 241.332031 394.449219 262.613281 C 379.613281 279.925781 364.101562 290.789062 338.324219 302.105469 C 320.5625 309.898438 304.902344 315.441406 260.765625 329.753906 C 244.054688 335.152344 221.277344 346.839844 204.941406 358.457031 C 189.054688 369.769531 169.496094 392.777344 160.503906 410.761719 C 153.535156 424.625 147.617188 442.757812 144.617188 459.09375 C 142.894531 468.683594 142.96875 472.507812 144.992188 472.507812 C 145.59375 472.507812 146.640625 471.382812 147.316406 470.035156 C 153.535156 457.746094 176.089844 432.339844 191.078125 420.875 C 213.707031 403.417969 234.839844 392.027344 276.503906 374.640625 C 289.089844 369.472656 301.304688 364.152344 303.777344 362.953125 C 306.175781 361.753906 308.273438 360.851562 308.347656 361.003906 C 308.5 361.152344 308.347656 362.578125 307.976562 364.226562 C 307.375 367 308.050781 369.84375 309.398438 369.84375 C 309.921875 369.84375 318.988281 366.847656 321.6875 365.722656 C 323.785156 364.824219 323.1875 363.699219 317.714844 358.230469 C 314.867188 355.382812 312.46875 352.835938 312.46875 352.609375 C 312.46875 352.386719 317.339844 352.3125 323.335938 352.460938 C 336.074219 352.761719 335.625 353.210938 331.953125 343.992188 C 330.753906 340.847656 329.707031 338 329.707031 337.625 C 329.707031 337.175781 333.300781 336.875 338.546875 336.875 C 343.34375 336.875 347.765625 336.574219 348.363281 336.199219 C 349.339844 335.601562 349.261719 334.402344 348.214844 327.433594 C 347.539062 322.9375 347.164062 319.191406 347.316406 319.039062 C 347.464844 318.890625 350.3125 319.789062 353.683594 321.136719 C 362.375 324.433594 363.277344 324.210938 365.824219 317.992188 C 368.820312 310.421875 376.539062 299.40625 378.863281 299.40625 C 379.3125 299.40625 382.308594 301.429688 385.53125 303.902344 C 388.753906 306.375 391.976562 308.398438 392.800781 308.398438 C 393.847656 308.398438 395.199219 306.300781 398.34375 299.929688 C 400.59375 295.359375 402.691406 291.464844 402.992188 291.390625 C 403.289062 291.238281 404.863281 293.261719 406.511719 295.886719 C 408.160156 298.433594 411.90625 303.003906 414.753906 306.074219 C 419.851562 311.398438 429.441406 318.890625 431.242188 318.890625 C 433.039062 318.890625 442.628906 311.398438 447.726562 306.074219 C 450.648438 303.003906 454.320312 298.433594 455.96875 295.886719 C 457.617188 293.261719 459.191406 291.238281 459.492188 291.390625 C 459.789062 291.464844 461.890625 295.359375 464.136719 299.929688 C 467.210938 306.152344 468.632812 308.398438 469.683594 308.398438 C 470.429688 308.398438 473.652344 306.375 476.875 303.902344 C 480.097656 301.429688 483.171875 299.40625 483.621094 299.40625 C 485.941406 299.40625 493.660156 310.421875 496.65625 317.992188 C 499.207031 324.210938 500.105469 324.433594 508.796875 321.136719 C 512.167969 319.789062 515.015625 318.890625 515.242188 319.039062 C 515.390625 319.265625 515.015625 322.261719 514.417969 325.710938 C 512.992188 333.800781 512.992188 335.824219 514.492188 336.425781 C 515.167969 336.648438 519.511719 336.875 524.234375 336.875 C 529.253906 336.875 532.777344 337.175781 532.777344 337.625 C 532.777344 338 531.800781 340.847656 530.527344 343.992188 C 526.855469 353.210938 526.40625 352.761719 539.144531 352.460938 C 545.140625 352.3125 550.011719 352.386719 550.011719 352.609375 C 550.011719 352.835938 547.6875 355.382812 544.765625 358.230469 C 539.296875 363.699219 538.695312 364.824219 540.871094 365.722656 C 543.492188 366.847656 552.558594 369.84375 553.082031 369.84375 C 554.433594 369.84375 555.105469 367 554.507812 364.226562 C 554.132812 362.578125 553.984375 361.152344 554.132812 361.003906 C 554.207031 360.851562 556.304688 361.753906 558.703125 362.953125 C 561.175781 364.152344 573.390625 369.472656 585.980469 374.640625 C 627.117188 391.800781 648.175781 403.117188 670.28125 419.976562 C 685.941406 431.964844 708.722656 457.371094 715.164062 470.035156 C 715.839844 471.382812 716.890625 472.507812 717.488281 472.507812 C 719.4375 472.507812 719.585938 468.683594 717.9375 459.46875 C 714.941406 443.132812 708.871094 424.546875 701.976562 410.683594 C 692.984375 392.851562 673.425781 369.769531 657.542969 358.457031 C 641.28125 346.914062 618.351562 335.074219 601.640625 329.679688 C 557.429688 315.367188 541.917969 309.898438 524.160156 302.105469 C 498.382812 290.789062 482.871094 279.925781 468.035156 262.613281 C 449.675781 241.257812 438.734375 219.226562 434.238281 194.648438 C 432.441406 184.757812 431.617188 182.207031 430.492188 183.933594 Z M 430.492188 183.933594 " fill-opacity="1" fill-rule="nonzero"/><path fill="rgb(97.648621%, 85.488892%, 10.5896%)" d="M 305.351562 195.695312 C 299.207031 197.195312 290.140625 201.765625 282.347656 207.386719 C 272.832031 214.28125 272.679688 215.929688 281.746094 214.28125 C 284.820312 213.757812 289.539062 213.308594 292.238281 213.230469 C 301.457031 213.230469 316.59375 216.152344 327.234375 220.050781 C 333.378906 222.300781 352.785156 231.742188 360.804688 236.3125 C 364.476562 238.484375 367.773438 240.207031 368.070312 240.207031 C 371.59375 240.207031 357.582031 218.402344 348.738281 210.234375 C 334.277344 196.746094 320.265625 192.101562 305.351562 195.695312 Z M 305.351562 195.695312 " fill-opacity="1" fill-rule="nonzero"/><path fill="rgb(97.648621%, 85.488892%, 10.5896%)" d="M 538.023438 195.546875 C 530.078125 197.796875 521.984375 202.589844 514.117188 209.933594 C 504.824219 218.550781 490.664062 240.207031 494.410156 240.207031 C 494.710938 240.207031 497.632812 238.632812 500.929688 236.761719 C 525.207031 222.824219 543.792969 215.855469 562.226562 213.832031 C 569.867188 213.007812 579.835938 213.53125 585.828125 215.179688 C 587.101562 215.554688 587.476562 215.328125 587.476562 214.207031 C 587.476562 212.257812 575.863281 203.789062 567.621094 199.742188 C 557.578125 194.796875 546.414062 193.222656 538.023438 195.546875 Z M 538.023438 195.546875 " fill-opacity="1" fill-rule="nonzero"/><path fill="rgb(97.648621%, 85.488892%, 10.5896%)" d="M 283.621094 221.847656 C 273.804688 224.023438 263.015625 229.492188 254.023438 236.835938 C 248.328125 241.480469 233.117188 256.992188 228.46875 262.839844 C 223.449219 269.207031 225.324219 269.433594 238.359375 264.113281 C 248.550781 259.992188 264.363281 255.046875 272.007812 253.621094 C 274.703125 253.097656 281.449219 252.722656 286.992188 252.722656 C 295.984375 252.648438 298.160156 252.949219 306.175781 255.046875 C 322.660156 259.316406 343.34375 259.765625 355.933594 256.167969 C 361.628906 254.519531 373.167969 250.101562 375.265625 248.75 C 377.886719 247.027344 376.164062 245.453125 371.742188 245.453125 C 367.847656 245.453125 359.15625 243.878906 352.933594 242.082031 C 343.566406 239.308594 339.148438 237.4375 325.058594 230.46875 C 315.46875 225.671875 308.5 222.671875 305.050781 221.925781 C 298.832031 220.5 289.839844 220.5 283.621094 221.847656 Z M 283.621094 221.847656 " fill-opacity="1" fill-rule="nonzero"/><path fill="rgb(97.648621%, 85.488892%, 10.5896%)" d="M 557.128906 221.847656 C 554.65625 222.449219 545.890625 226.269531 537.648438 230.390625 C 523.335938 237.4375 518.839844 239.308594 509.546875 242.082031 C 503.328125 243.878906 494.636719 245.453125 490.738281 245.453125 C 486.316406 245.453125 484.59375 247.027344 487.214844 248.75 C 489.316406 250.101562 500.855469 254.519531 506.550781 256.167969 C 519.136719 259.765625 539.820312 259.316406 556.304688 255.046875 C 564.097656 253.023438 566.722656 252.722656 574.738281 252.648438 C 579.910156 252.648438 586.652344 253.097656 589.726562 253.546875 C 597.519531 254.820312 613.03125 259.617188 624.121094 264.113281 C 640.90625 271.007812 640.679688 269.28125 622.472656 250.25 C 607.859375 235.039062 597.894531 227.917969 584.929688 223.574219 C 576.613281 220.800781 564.546875 220.050781 557.128906 221.847656 Z M 557.128906 221.847656 " fill-opacity="1" fill-rule="nonzero"/><path fill="rgb(97.648621%, 85.488892%, 10.5896%)" d="M 379.835938 254.070312 C 372.941406 259.390625 367.773438 262.015625 359.679688 264.488281 C 344.390625 269.058594 327.53125 270.105469 289.839844 268.757812 C 255.671875 267.484375 242.632812 268.832031 225.921875 275.351562 C 217.53125 278.574219 211.234375 282.847656 203.742188 290.414062 C 193.324219 300.90625 185.90625 313.496094 180.660156 329.007812 C 177.738281 337.699219 175.265625 349.089844 176.015625 349.839844 C 176.839844 350.664062 179.539062 349.238281 187.554688 344.066406 C 200.21875 335.824219 222.398438 325.183594 237.910156 319.863281 C 255.070312 314.019531 277.101562 308.175781 293.738281 305.101562 C 313.445312 301.429688 328.207031 296.859375 341.320312 290.488281 C 352.636719 284.945312 365 276.777344 371.742188 270.40625 C 377.511719 264.9375 386.804688 253.472656 386.953125 251.671875 C 387.105469 249.351562 385.230469 249.949219 379.835938 254.070312 Z M 379.835938 254.070312 " fill-opacity="1" fill-rule="nonzero"/><path fill="rgb(97.648621%, 85.488892%, 10.5896%)" d="M 475.453125 250.699219 C 474.925781 251.523438 476.425781 253.921875 482.269531 261.191406 C 487.890625 268.308594 495.007812 274.679688 504.078125 280.671875 C 522.433594 292.886719 541.320312 300.007812 568.746094 305.101562 C 586.054688 308.324219 606.8125 313.871094 624.570312 319.863281 C 640.679688 325.410156 660.761719 335.074219 676.722656 345.117188 C 681.371094 347.964844 685.417969 350.363281 685.714844 350.363281 C 687.066406 350.363281 687.066406 348.640625 685.566406 342.34375 C 680.246094 319.863281 671.929688 303.753906 658.738281 290.414062 C 651.246094 282.847656 644.953125 278.574219 636.558594 275.351562 C 619.847656 268.832031 606.8125 267.484375 572.640625 268.757812 C 519.363281 270.707031 500.40625 267.632812 482.71875 254.144531 C 477.027344 249.800781 476.203125 249.425781 475.453125 250.699219 Z M 475.453125 250.699219 " fill-opacity="1" fill-rule="nonzero"/><path fill="rgb(97.648621%, 85.488892%, 10.5896%)" d="M 353.308594 370.746094 C 351.660156 371.945312 345.515625 375.839844 339.671875 379.4375 C 333.75 382.960938 328.957031 386.257812 328.957031 386.78125 C 328.957031 387.980469 333.226562 391.578125 334.652344 391.578125 C 335.175781 391.578125 336.972656 391.050781 338.621094 390.378906 C 342.96875 388.65625 344.84375 389.179688 345.667969 392.324219 C 346.566406 395.847656 347.988281 397.347656 353.308594 400.042969 C 359.605469 403.191406 361.328125 403.640625 369.421875 404.242188 L 376.539062 404.691406 L 376.765625 406.9375 C 376.914062 408.136719 376.6875 410.984375 376.164062 413.234375 C 374.964844 418.476562 375.714844 419.152344 380.285156 417.128906 C 382.234375 416.230469 384.03125 415.554688 384.257812 415.554688 C 385.15625 415.554688 383.582031 432.867188 382.160156 438.785156 C 381.261719 442.234375 378.5625 451.601562 376.015625 459.617188 C 372.566406 470.484375 371.667969 474.304688 372.34375 474.980469 C 373.542969 476.179688 373.992188 475.429688 378.261719 465.386719 C 385.230469 449.050781 390.476562 433.539062 391.902344 425.296875 C 394.898438 408.210938 394.972656 407.238281 393.699219 398.171875 C 391.75 383.859375 389.953125 381.984375 374.664062 378.3125 C 372.941406 377.863281 371.742188 376.964844 371.070312 375.617188 C 370.542969 374.492188 369.796875 373.59375 369.421875 373.59375 C 369.121094 373.59375 366.722656 375.316406 364.175781 377.414062 C 361.703125 379.511719 359.453125 381.085938 359.304688 380.9375 C 359.078125 380.710938 360.578125 379.136719 362.675781 377.414062 C 364.699219 375.691406 366.421875 373.96875 366.421875 373.59375 C 366.421875 372.84375 360.429688 369.621094 357.804688 368.871094 C 356.832031 368.648438 355.257812 369.246094 353.308594 370.746094 Z M 353.308594 370.746094 " fill-opacity="1" fill-rule="nonzero"/><path fill="rgb(97.648621%, 85.488892%, 10.5896%)" d="M 501.152344 370.671875 C 498.757812 371.867188 496.808594 373.144531 496.808594 373.515625 C 496.808594 373.890625 498.605469 375.765625 500.78125 377.640625 C 502.878906 379.511719 504.375 381.085938 503.925781 381.085938 C 503.550781 381.085938 501.230469 379.363281 498.832031 377.339844 C 496.433594 375.242188 494.109375 373.59375 493.8125 373.59375 C 493.4375 373.59375 492.6875 374.492188 492.164062 375.617188 C 491.414062 377.113281 490.363281 377.863281 488.191406 378.386719 C 477.25 380.859375 473.578125 382.882812 471.554688 387.605469 C 471.03125 389.027344 470.054688 393.675781 469.457031 398.019531 C 468.40625 405.140625 468.40625 406.9375 469.53125 415.480469 C 470.132812 420.652344 471.480469 427.921875 472.453125 431.667969 C 475.527344 443.355469 488.339844 475.503906 489.988281 475.503906 C 491.789062 475.503906 491.335938 473.179688 487.066406 459.617188 C 484.519531 451.675781 481.820312 442.457031 480.996094 439.160156 C 479.648438 433.617188 478.074219 415.554688 478.972656 415.554688 C 479.199219 415.554688 480.996094 416.230469 482.945312 417.128906 C 484.894531 417.953125 486.765625 418.402344 487.066406 418.027344 C 487.441406 417.730469 487.367188 415.855469 486.992188 413.90625 C 486.542969 412.035156 486.316406 409.113281 486.46875 407.539062 L 486.691406 404.691406 L 493.4375 404.242188 C 500.78125 403.792969 504.078125 402.890625 510.296875 399.820312 C 515.390625 397.273438 516.742188 395.773438 517.414062 392.101562 C 518.015625 388.878906 519.214844 388.65625 524.683594 390.527344 C 527.753906 391.578125 528.429688 391.578125 530.304688 390.527344 C 533.527344 388.878906 534.648438 387.304688 533.601562 386.03125 C 533.074219 385.433594 529.480469 383.035156 525.433594 380.636719 C 521.460938 378.3125 515.691406 374.714844 512.695312 372.691406 C 509.773438 370.671875 506.847656 368.871094 506.324219 368.722656 C 505.875 368.570312 503.476562 369.394531 501.152344 370.671875 Z M 501.152344 370.671875 " fill-opacity="1" fill-rule="nonzero"/><path fill="rgb(97.648621%, 85.488892%, 10.5896%)" d="M 291.488281 378.761719 C 290.441406 379.511719 280.847656 384.683594 270.132812 390.226562 C 240.832031 405.441406 216.929688 420.425781 201.34375 433.390625 C 187.332031 445.003906 172.644531 465.164062 167.175781 480.449219 C 156.683594 509.375 155.257812 544.070312 162.976562 582.585938 C 164.476562 589.703125 165.824219 595.847656 166.050781 596.222656 C 166.875 597.574219 169.347656 596.898438 169.648438 595.175781 C 169.871094 594.277344 170.546875 590.828125 171.21875 587.53125 C 175.714844 564.601562 191.527344 534.628906 211.386719 511.472656 C 226.371094 493.863281 239.109375 482.324219 270.957031 456.996094 C 284.519531 446.277344 298.082031 434.890625 301.003906 431.816406 C 307.148438 425.449219 311.722656 417.128906 312.320312 411.058594 C 312.621094 407.761719 312.394531 407.164062 309.625 403.640625 C 305.953125 399.070312 301.15625 390.378906 299.355469 385.207031 C 296.734375 377.5625 296.585938 377.339844 294.9375 377.339844 C 294.113281 377.339844 292.539062 378.011719 291.488281 378.761719 Z M 291.488281 378.761719 " fill-opacity="1" fill-rule="nonzero"/><path fill="rgb(97.648621%, 85.488892%, 10.5896%)" d="M 565.148438 379.363281 C 564.773438 380.5625 563.800781 383.109375 563.125 385.207031 C 561.324219 390.378906 556.53125 399.070312 552.859375 403.640625 C 550.085938 407.238281 549.859375 407.761719 550.160156 411.210938 C 550.386719 413.382812 551.734375 417.28125 553.609375 421.101562 C 557.730469 429.34375 563.875 435.1875 591.226562 456.769531 C 618.574219 478.351562 625.246094 484.121094 638.207031 497.460938 C 667.433594 527.660156 685.117188 557.933594 691.636719 588.804688 C 692.386719 592.402344 693.210938 595.699219 693.507812 596.074219 C 694.109375 597.046875 695.90625 597.125 696.433594 596.222656 C 696.65625 595.847656 698.003906 589.703125 699.503906 582.585938 C 707.222656 543.917969 705.796875 509.449219 695.308594 480.449219 C 688.488281 461.640625 671.105469 439.984375 651.546875 425.898438 C 631.6875 411.660156 616.476562 402.59375 589.351562 388.578125 C 580.285156 383.933594 571.964844 379.511719 570.84375 378.761719 C 567.996094 376.738281 566.046875 376.964844 565.148438 379.363281 Z M 565.148438 379.363281 " fill-opacity="1" fill-rule="nonzero"/><path fill="rgb(97.648621%, 85.488892%, 10.5896%)" d="M 283.023438 464.9375 C 235.886719 503.828125 225.546875 514.769531 214.683594 537.324219 C 205.464844 556.433594 201.644531 575.617188 202.617188 598.398438 C 203.816406 628.519531 211.386719 656.097656 227.195312 687.945312 C 232.589844 698.734375 245.40625 720.914062 246.679688 721.738281 C 248.703125 723.015625 249.152344 720.015625 249.675781 700.457031 C 250.125 680.074219 250.800781 674.082031 254.398438 656.023438 C 262.566406 615.257812 281.074219 575.992188 306.175781 546.242188 C 308.574219 543.394531 314.417969 536.652344 319.214844 531.332031 C 332.925781 515.894531 336.675781 510.949219 336.597656 508.476562 C 336.523438 506.152344 326.558594 485.171875 324.835938 483.746094 C 321.835938 481.273438 315.167969 485.171875 300.40625 498.058594 C 263.914062 529.683594 241.132812 571.871094 232.214844 624.25 L 230.792969 632.492188 L 231.242188 618.703125 C 231.691406 601.320312 233.566406 590.152344 238.285156 575.917969 C 250.351562 539.273438 271.257812 510.273438 307.148438 480.300781 C 311.046875 477.003906 314.570312 473.855469 314.945312 473.105469 C 315.542969 472.207031 315.09375 470.484375 313.070312 465.988281 C 311.570312 462.765625 309.625 457.96875 308.722656 455.269531 C 307.074219 450.699219 305.351562 447.777344 304.304688 447.777344 C 304.078125 447.851562 294.488281 455.570312 283.023438 464.9375 Z M 283.023438 464.9375 " fill-opacity="1" fill-rule="nonzero"/><path fill="rgb(97.648621%, 85.488892%, 10.5896%)" d="M 556.605469 449.050781 C 556.003906 449.800781 554.730469 452.574219 553.757812 455.269531 C 552.859375 457.96875 550.910156 462.765625 549.410156 465.988281 C 547.386719 470.484375 546.9375 472.207031 547.539062 473.105469 C 547.914062 473.855469 551.433594 477.003906 555.332031 480.226562 C 588.675781 508.027344 609.660156 535.976562 621.796875 568.796875 C 628.46875 586.855469 630.714844 598.398438 631.238281 618.703125 L 631.6875 632.492188 L 630.566406 626.121094 C 626.96875 605.292969 623.746094 593 617.75 578.015625 C 604.863281 545.417969 586.953125 519.566406 562.074219 498.058594 C 547.3125 485.171875 540.644531 481.273438 537.648438 483.746094 C 535.773438 485.320312 526.03125 506.003906 526.03125 508.550781 C 526.03125 511.546875 527.230469 512.972656 551.507812 540.695312 C 583.65625 577.339844 602.988281 620.054688 611.082031 672.582031 C 611.832031 677.304688 612.507812 688.46875 612.878906 700.457031 C 613.40625 721.140625 613.855469 723.761719 616.253906 721.289062 C 618.425781 719.042969 629.816406 698.808594 635.734375 686.820312 C 651.546875 654.75 658.738281 628.222656 659.9375 598.023438 C 661.214844 564.375 650.722656 533.804688 629.589844 509.523438 C 623.148438 502.105469 605.761719 486.59375 582.832031 467.785156 C 573.242188 459.917969 563.875 452.199219 562.074219 450.625 C 558.328125 447.328125 558.105469 447.328125 556.605469 449.050781 Z M 556.605469 449.050781 " fill-opacity="1" fill-rule="nonzero"/><path fill="rgb(97.648621%, 85.488892%, 10.5896%)" d="M 381.410156 491.316406 C 381.410156 495.8125 385.304688 503.53125 388.902344 506.152344 C 390.550781 507.351562 395.796875 510.050781 400.667969 512.148438 C 414.679688 518.367188 424.347656 523.164062 426.144531 524.660156 C 427.644531 526.011719 427.792969 526.835938 428.019531 536.351562 C 428.167969 548.265625 428.691406 547.140625 418.875 555.160156 C 411.308594 561.304688 403.816406 564.75 397.296875 565.199219 C 393.023438 565.5 391.226562 565.199219 385.605469 563.253906 C 381.933594 561.980469 378.636719 560.929688 378.261719 560.929688 C 376.988281 560.929688 375.414062 566.175781 375.414062 570.445312 C 375.414062 575.839844 377.8125 581.3125 381.710938 584.757812 C 383.207031 586.03125 384.707031 587.15625 385.007812 587.15625 C 385.382812 587.15625 386.804688 585.957031 388.230469 584.460938 C 391.75 580.789062 401.792969 573.21875 406.0625 571.121094 C 413.929688 567.074219 420 565.800781 431.242188 565.800781 C 442.480469 565.800781 448.550781 567.074219 456.417969 571.121094 C 460.691406 573.21875 470.730469 580.789062 474.253906 584.460938 C 475.675781 585.957031 477.101562 587.15625 477.476562 587.15625 C 477.773438 587.15625 479.273438 586.03125 480.773438 584.757812 C 484.667969 581.3125 487.066406 575.839844 487.066406 570.445312 C 487.066406 566.175781 485.492188 560.929688 484.21875 560.929688 C 483.84375 560.929688 480.546875 561.980469 476.875 563.253906 C 471.253906 565.199219 469.457031 565.5 465.1875 565.199219 C 458.667969 564.75 451.171875 561.304688 443.605469 555.160156 C 433.863281 547.214844 434.386719 548.339844 434.539062 536.425781 C 434.6875 526.757812 434.761719 526.011719 436.335938 524.660156 C 438.136719 523.164062 447.875 518.367188 461.8125 512.148438 C 473.578125 506.976562 475.902344 505.179688 478.75 499.257812 C 481.222656 494.164062 481.894531 488.242188 480.097656 488.242188 C 479.574219 488.242188 477.324219 489.667969 475.078125 491.316406 C 469.605469 495.4375 468.632812 495.734375 460.765625 495.734375 C 455.21875 495.734375 453.269531 496.035156 450.050781 497.535156 C 443.230469 500.683594 438.433594 501.730469 431.242188 501.730469 C 424.046875 501.730469 419.25 500.683594 412.433594 497.535156 C 409.210938 496.035156 407.261719 495.734375 401.71875 495.734375 C 393.847656 495.734375 392.875 495.4375 387.40625 491.316406 C 382.234375 487.417969 381.410156 487.417969 381.410156 491.316406 Z M 381.410156 491.316406 " fill-opacity="1" fill-rule="nonzero"/><path fill="rgb(97.648621%, 85.488892%, 10.5896%)" d="M 352.933594 499.707031 C 352.933594 503.828125 362.003906 512.972656 369.945312 516.867188 C 374.066406 518.890625 375.941406 519.339844 381.335938 519.566406 C 388.753906 519.867188 392.875 518.890625 391.078125 517.09375 C 390.476562 516.492188 386.65625 515.144531 382.609375 514.09375 C 374.214844 511.996094 368.148438 508.699219 360.578125 502.105469 C 355.484375 497.609375 352.933594 496.859375 352.933594 499.707031 Z M 352.933594 499.707031 " fill-opacity="1" fill-rule="nonzero"/><path fill="rgb(97.648621%, 85.488892%, 10.5896%)" d="M 346.191406 503.304688 C 346.191406 506.300781 352.1875 517.242188 356.382812 521.886719 C 359.378906 525.1875 362.003906 527.207031 365.972656 529.15625 C 370.84375 531.554688 372.117188 531.855469 377.363281 531.855469 C 380.660156 531.929688 386.429688 531.480469 390.253906 530.957031 C 394.824219 530.28125 400.59375 530.132812 406.960938 530.429688 C 415.953125 530.878906 416.628906 530.804688 416.628906 529.53125 C 416.628906 527.882812 414.980469 526.382812 411.007812 524.363281 C 406.0625 521.886719 400.144531 521.140625 393.550781 522.039062 C 390.402344 522.488281 384.558594 522.9375 380.660156 522.9375 C 374.367188 523.011719 373.015625 522.789062 369.046875 520.988281 C 364.023438 518.667969 360.203125 515.21875 353.535156 507.125 C 348.964844 501.582031 346.191406 500.15625 346.191406 503.304688 Z M 346.191406 503.304688 " fill-opacity="1" fill-rule="nonzero"/><path fill="rgb(97.648621%, 85.488892%, 10.5896%)" d="M 339.820312 524.0625 C 338.847656 524.734375 327.082031 538.375 320.339844 546.691406 C 299.28125 572.695312 283.246094 610.761719 277.703125 648.378906 C 276.425781 656.769531 275.003906 678.878906 275.003906 689.96875 C 275.003906 711.023438 280.472656 738.226562 288.191406 755.761719 C 292.761719 766.175781 300.105469 776.742188 302.804688 776.742188 C 304.601562 776.742188 304.601562 776.515625 302.429688 766.851562 C 295.386719 735.679688 299.355469 695.8125 313.296875 658.644531 C 323.261719 632.117188 335.699219 608.886719 356.457031 578.238281 C 361.628906 570.671875 365.523438 564.226562 365.148438 563.925781 C 364.847656 563.628906 361.851562 561.378906 358.480469 558.90625 C 347.464844 550.589844 345.292969 546.917969 343.269531 533.878906 C 341.917969 524.886719 341.246094 523.011719 339.820312 524.0625 Z M 339.820312 524.0625 " fill-opacity="1" fill-rule="nonzero"/><path fill="rgb(97.648621%, 85.488892%, 10.5896%)" d="M 520.785156 524.960938 C 520.414062 525.710938 520.039062 527.207031 520.039062 528.183594 C 520.039062 532.078125 517.714844 543.171875 516.289062 545.941406 C 514.042969 550.289062 510.746094 553.8125 504 558.90625 C 500.628906 561.378906 497.632812 563.628906 497.332031 563.925781 C 497.03125 564.226562 500.929688 570.671875 506.023438 578.238281 C 527.082031 609.335938 539.296875 632.191406 549.1875 658.644531 C 563.125 695.8125 567.097656 735.679688 560.050781 766.851562 C 557.878906 776.515625 557.878906 776.742188 559.675781 776.742188 C 562.675781 776.742188 570.84375 764.453125 575.414062 753.0625 C 581.410156 738.152344 585.082031 721.890625 586.804688 702.707031 C 587.925781 690.492188 586.878906 661.566406 584.855469 648.378906 C 579.609375 613.910156 566.195312 579.886719 547.988281 554.410156 C 542.890625 547.214844 523.859375 524.511719 522.511719 523.910156 C 521.984375 523.6875 521.238281 524.136719 520.785156 524.960938 Z M 520.785156 524.960938 " fill-opacity="1" fill-rule="nonzero"/><path fill="rgb(97.648621%, 85.488892%, 10.5896%)" d="M 459.191406 539.648438 C 457.691406 541.148438 458.816406 542.796875 462.5625 544.59375 C 472.753906 549.613281 478.675781 549.988281 486.992188 546.316406 C 492.3125 543.917969 494.484375 541.820312 493.210938 540.546875 C 492.535156 539.871094 491.261719 539.871094 487.964844 540.546875 C 482.945312 541.597656 473.277344 541.671875 468.332031 540.695312 C 466.460938 540.398438 463.761719 539.871094 462.339844 539.574219 C 460.914062 539.273438 459.492188 539.347656 459.191406 539.648438 Z M 459.191406 539.648438 " fill-opacity="1" fill-rule="nonzero"/><path fill="rgb(97.648621%, 85.488892%, 10.5896%)" d="M 357.28125 600.421875 C 338.246094 632.269531 326.632812 659.84375 322.585938 682.699219 C 320.9375 691.914062 320.265625 717.992188 321.386719 728.035156 C 322.4375 737.101562 325.285156 750.441406 327.980469 759.132812 C 332.628906 773.894531 349.039062 800.421875 353.160156 799.820312 C 354.582031 799.597656 354.660156 799.222656 354.359375 794.351562 C 353.683594 782.585938 354.132812 720.464844 355.03125 710.050781 C 358.332031 672.507812 362.078125 651.675781 371.519531 619.078125 L 376.464844 601.917969 L 373.839844 597.046875 C 370.769531 591.203125 367.398438 586.40625 366.421875 586.40625 C 366.046875 586.40625 361.925781 592.703125 357.28125 600.421875 Z M 357.28125 600.421875 " fill-opacity="1" fill-rule="nonzero"/><path fill="rgb(97.648621%, 85.488892%, 10.5896%)" d="M 493.585938 588.804688 C 492.613281 590.152344 490.511719 593.601562 488.941406 596.449219 L 486.09375 601.621094 L 487.214844 605.816406 C 487.890625 608.136719 490.140625 616.007812 492.238281 623.351562 C 504.675781 666.214844 509.320312 706.828125 508.648438 767.152344 C 508.421875 783.785156 508.121094 797.875 507.972656 798.472656 C 507.824219 799.148438 508.273438 799.671875 509.246094 799.820312 C 513.367188 800.421875 529.777344 773.96875 534.5 759.132812 C 537.347656 750.140625 540.121094 736.875 541.09375 727.660156 C 542.21875 717.167969 541.542969 691.914062 539.894531 682.699219 C 537.273438 667.636719 530.078125 647.328125 521.085938 629.121094 C 514.492188 615.855469 497.257812 586.40625 496.058594 586.40625 C 495.683594 586.40625 494.558594 587.53125 493.585938 588.804688 Z M 493.585938 588.804688 " fill-opacity="1" fill-rule="nonzero"/><path fill="rgb(97.648621%, 85.488892%, 10.5896%)" d="M 390.550781 610.613281 C 389.054688 612.410156 383.808594 629.269531 381.859375 638.5625 C 379.238281 651.078125 377.0625 667.863281 376.015625 684.121094 C 375.265625 696.1875 375.265625 699.335938 376.390625 709.375 C 378.039062 724.136719 381.109375 736.128906 385.679688 745.269531 C 388.679688 751.265625 390.402344 753.585938 396.398438 759.582031 C 407.5625 770.898438 413.105469 772.695312 409.808594 763.929688 C 407.710938 758.457031 402.242188 736.953125 399.46875 723.089844 C 394.148438 696.1875 392.5 675.878906 392.726562 636.390625 C 392.800781 611.585938 392.5 608.214844 390.550781 610.613281 Z M 390.550781 610.613281 " fill-opacity="1" fill-rule="nonzero"/><path fill="rgb(97.648621%, 85.488892%, 10.5896%)" d="M 470.207031 610.386719 C 469.90625 610.910156 469.683594 622.601562 469.757812 636.464844 C 469.980469 675.878906 468.332031 696.1875 463.011719 723.089844 C 460.242188 736.953125 454.769531 758.457031 452.671875 763.929688 C 449.375 772.695312 454.921875 770.898438 466.085938 759.582031 C 472.078125 753.585938 473.804688 751.265625 476.800781 745.269531 C 481.371094 736.128906 484.445312 724.136719 486.09375 709.375 C 487.214844 699.335938 487.214844 696.1875 486.46875 684.121094 C 484.742188 658.195312 481.148438 636.839844 475.675781 620.351562 C 472.679688 611.285156 471.253906 608.664062 470.207031 610.386719 Z M 470.207031 610.386719 " fill-opacity="1" fill-rule="nonzero"/><path fill="rgb(97.648621%, 85.488892%, 10.5896%)" d="M 413.855469 616.832031 C 413.632812 617.503906 413.632812 624.847656 413.855469 633.167969 C 414.832031 663.589844 418.277344 700.234375 421.199219 710.800781 C 423.898438 720.992188 430.042969 736.277344 431.316406 736.277344 C 432.890625 736.277344 440.609375 714.996094 442.480469 705.703125 C 445.179688 691.617188 448.175781 653.773438 448.402344 630.992188 L 448.476562 616.007812 L 431.390625 615.78125 C 416.179688 615.632812 414.304688 615.707031 413.855469 616.832031 Z M 413.855469 616.832031 " fill-opacity="1" fill-rule="nonzero"/></svg>